<svg width="0" height="0" class="hidden">

    <symbol fill="currentColor" xmlns="http://www.w3.org/2000/svg" id="social-facebook" viewBox="0 0 24 24">
        <path d="M14,13.5h2.5l1-4H14v-2c0-1.03,0-2,2-2h1.5V2.14A28.166,28.166,0,0,0,14.643,2,4.336,4.336,0,0,0,10,6.7V9.5H7v4h3V22h4Z" fill="currentColor"/>
    </symbol>

    <symbol fill="currentColor" xmlns="http://www.w3.org/2000/svg" id="social-instagram" viewBox="0 0 24 24">
        <path d="M12,9a3,3,0,1,0,3,3A3,3,0,0,0,12,9Zm0-2a5,5,0,1,1-5,5A5,5,0,0,1,12,7Zm6.5-.25A1.25,1.25,0,1,1,17.25,5.5,1.25,1.25,0,0,1,18.5,6.75ZM12,4c-2.474,0-2.878.007-4.029.058a5.433,5.433,0,0,0-1.8.332,2.886,2.886,0,0,0-1.08.7,2.89,2.89,0,0,0-.7,1.08,5.425,5.425,0,0,0-.331,1.8C4.006,9.075,4,9.461,4,12c0,2.474.007,2.878.058,4.029a5.454,5.454,0,0,0,.331,1.8,3.109,3.109,0,0,0,1.782,1.783,5.444,5.444,0,0,0,1.8.333c1.1.052,1.49.058,4.029.058,2.474,0,2.878-.007,4.029-.058a5.465,5.465,0,0,0,1.8-.331,2.921,2.921,0,0,0,1.08-.7,2.891,2.891,0,0,0,.7-1.08,5.467,5.467,0,0,0,.332-1.8c.052-1.1.058-1.49.058-4.029,0-2.474-.007-2.878-.058-4.029a5.443,5.443,0,0,0-.332-1.8,2.911,2.911,0,0,0-.7-1.08,2.884,2.884,0,0,0-1.08-.7,5.43,5.43,0,0,0-1.8-.331C14.925,4.006,14.539,4,12,4Zm0-2c2.717,0,3.056.01,4.122.06a7.367,7.367,0,0,1,2.428.465,4.876,4.876,0,0,1,1.772,1.153A4.908,4.908,0,0,1,21.475,5.45a7.387,7.387,0,0,1,.465,2.428C21.987,8.944,22,9.283,22,12s-.01,3.056-.06,4.122a7.393,7.393,0,0,1-.465,2.428,5.106,5.106,0,0,1-2.925,2.925,7.387,7.387,0,0,1-2.428.465c-1.066.047-1.4.06-4.122.06s-3.056-.01-4.122-.06a7.393,7.393,0,0,1-2.428-.465A5.106,5.106,0,0,1,2.525,18.55a7.361,7.361,0,0,1-.465-2.428C2.013,15.056,2,14.717,2,12s.01-3.056.06-4.122A7.361,7.361,0,0,1,2.525,5.45,4.88,4.88,0,0,1,3.678,3.678,4.9,4.9,0,0,1,5.45,2.525,7.361,7.361,0,0,1,7.878,2.06C8.944,2.013,9.283,2,12,2Z" fill="currentColor"/>
    </symbol>

    <symbol fill="currentColor" xmlns="http://www.w3.org/2000/svg" id="social-pinterest" viewBox="0 0 24 24">
        <path d="M8.49,19.191a7.058,7.058,0,0,1,.144-1c.063-.3.254-1.13.534-2.34l.007-.03.387-1.668a5.875,5.875,0,0,1,.181-.692,3.46,3.46,0,0,1-.284-1.423c0-1.337.756-2.373,1.736-2.373a1.217,1.217,0,0,1,.942.426,1.283,1.283,0,0,1,.3,1,7,7,0,0,1-.453,2.035c-.071.238-.12.4-.166.571-.051.188-.1.358-.132.522a1.286,1.286,0,0,0,.237,1.106,1.2,1.2,0,0,0,1.006.456c1.492,0,2.6-1.985,2.6-4.548A3.125,3.125,0,0,0,12.1,7.954,3.878,3.878,0,0,0,9.2,9.1a4.13,4.13,0,0,0-1.195,2.961,2.553,2.553,0,0,0,.512,1.644.527.527,0,0,1,.175.59c-.041.168-.14.552-.176.68a.41.41,0,0,1-.216.3.388.388,0,0,1-.355,0c-1.16-.479-1.8-1.778-1.8-3.44,0-2.985,2.491-5.584,6.192-5.584a5.269,5.269,0,0,1,5.481,5.14c0,3.532-1.932,6.1-4.69,6.1a2.508,2.508,0,0,1-2.046-.959l-.043.177-.207.852,0,.007c-.146.6-.248,1.017-.288,1.174a7.289,7.289,0,0,1-.4,1.04,8,8,0,1,0-1.656-.593ZM12,22A10,10,0,1,1,22,12,10,10,0,0,1,12,22Z" fill="currentColor"/>
    </symbol>

    <symbol fill="currentColor"  xmlns="http://www.w3.org/2000/svg" id="social-whatsapp" viewBox="0 0 256 256" >
        <path d="M45.4,177A95.9,95.9,0,1,1,79,210.6h0L45.8,220a7.9,7.9,0,0,1-9.8-9.8L45.4,177Z" fill="none" stroke="currentColor" stroke-linecap="round" stroke-linejoin="round" stroke-width="16" />
        <path d="M152.1,184A79.9,79.9,0,0,1,72,103.9,28,28,0,0,1,100,76h0a6.8,6.8,0,0,1,6,3.5l11.7,20.4a8.1,8.1,0,0,1-.1,8.1l-9.4,15.7h0a48,48,0,0,0,24.1,24.1h0l15.7-9.4a8.1,8.1,0,0,1,8.1-.1L176.5,150a6.8,6.8,0,0,1,3.5,6h0A28.1,28.1,0,0,1,152.1,184Z" fill="none" stroke="currentColor" stroke-linecap="round" stroke-linejoin="round" stroke-width="16" />
    </symbol>

    <symbol fill="currentColor" xmlns="http://www.w3.org/2000/svg" id="social-youtube" viewBox="0 0 24 24">
        <path d="M19.615 3.184c-3.604-.246-11.631-.245-15.23 0-3.897.266-4.356 2.62-4.385 8.816.029 6.185.484 8.549 4.385 8.816 3.6.245 11.626.246 15.23 0 3.897-.266 4.356-2.62 4.385-8.816-.029-6.185-.484-8.549-4.385-8.816zm-10.615 12.816v-8l8 3.993-8 4.007z" fill="currentColor"/>
    </symbol>

</svg>